<svg id="ud-img-udlogo" aria-hidden="true" focusable="false" xmlns="http://www.w3.org/2000/svg" viewBox="0 0 340 140" width="340" height="140">
  <defs>
    <style>
      .fill--current{fill:currentColor}
      .fill--white{fill:white}
    </style>
  </defs>
<path class="fill--current fill--white" d="M78 45c.6-3.8.1-4.1.3-27.9-1.3-2-2.7-3.7-5.4-3.7V12h8.4l21 29.1h.1c-.2-26.6 1.6-27-5.2-27.7V12h11.3v1.4c-2.1.2-3.7 1-3.9 3-.6 3.7-.2 3.5-.3 33h-1.5L80.2 18.6c.2 24.6-.2 23.2.3 26.4zm38.8-2.4c0 5.1-.1 4.8 3.7 5.4v1.4h-11.4V48c3.8-.6 3.6-.3 3.6-5.4V18.7c0-5 .2-4.7-3.6-5.3V12h11.4v1.4c-3.8.6-3.7.3-3.7 5.3z" transform="translate(-1)"></path>
<path class="fill--current fill--white" d="M132 13.4c-2.5 0-4.4.9-2.8 6s4.5 15.4 6.9 23.5l8.6-24.5c1.1-3.4-.1-5-3.2-5V12h10v1.4c-1.3 0-2.9.6-3.8 3.2L136 49.3h-2.3c-10.3-33.6-10.4-35.9-14.2-35.9V12h12.6v1.4z" transform="translate(-1)"></path>
<path class="fill--current fill--white" d="M149.3 48c4.3-.6 4-.3 4-5.4V18.7c0-5 .2-4.7-4-5.3V12h21.1v8.5h-1.2c-.5-3.9-1.4-6.8-4.8-6.8h-6.5V29c3.2-.5 8.2 1.8 8.3-4.7h1.3v11.4h-1.3c-.2-7-5.6-4.4-8.3-5v12c0 4.6 1.9 5 6.1 5 6.9 0 6.6-2.3 8.7-7.9h1.3l-1.4 9.6h-23.3z" transform="translate(-1)"></path>
<path class="fill--current fill--white" d="M172.7 12.1h13.8c4.8 0 9.5 2.8 9.5 9s-3 9.3-6.6 10.9c1.8 2.9 7.8 14.3 11.3 16.7v.7h-4.9c-2.8 0-4.2-5.9-10-16.5h-4.4v9.7c0 5.1-.1 4.8 4 5.4v1.4h-12.7V48c4.3-.6 4.1-.3 4.1-5.4V18.7c0-5 .1-4.7-4.1-5.3zm8.6 19.1c2.1-.7 10 3.1 10-9.6 0-5.9-2.9-7.9-6.3-7.9h-3.7zm36.4-11.3c-.4-3.7-2.2-6.6-5.9-6.6s-5.1 1.6-5.1 5.5 3.3 5.9 7.9 10 6.5 6.9 6.5 11.3c0 6.3-5.6 9.9-11.3 9.9a18.3 18.3 0 0 1-8-1.7c-.5-.3-.1-1.5-.3-8.5h1.2c.6 5.9 4 8.3 7.6 8.3s6-3 6-6.9-1.6-6.2-8.6-11.5c-2.6-1.9-5.7-4-5.7-9.9s4.7-8.5 10-8.5a20.7 20.7 0 0 1 6.6 1c.3.1.3.3.3.6v7zm13 22.7c0 5.1-.2 4.8 4 5.4v1.4h-12.6V48c4.2-.6 4.1-.3 4.1-5.4V18.7c0-5 .1-4.7-4.1-5.3V12h12.6v1.4c-4.2.6-4 .3-4 5.3z" transform="translate(-1)"></path>
<path class="fill--current fill--white" d="M250.5 42.6c0 5.1-.2 4.8 4.1 5.4v1.4h-12.8V48c4.3-.6 4-.3 4-5.4V13.7h-4.2c-4.1 0-5.1 3-6.6 6.5h-1.2l1.3-8.2h26.2l1.2 8.2h-1.1c-1.6-3.5-2.5-6.5-6.6-6.5h-4.4v28.9zm24.2 0v-8.1l-7.3-16.3c-1.5-3.4-2.9-4.8-5-4.8V12h12v1.4c-3.6 0-3.3 2-2.1 4.8l5.7 13.4 6.5-13.4c1.7-3.2.1-4.8-2.7-4.8V12h9.7v1.4c-1.3 0-2.5.7-3.9 3.3-6.5 14.2-8.6 15.4-8.4 20v5.9c0 5.1-.2 4.8 4 5.4v1.4h-12.7V48c4.6-.4 4.2-.9 4.2-5.4zm30.5-18.3c6.3 0 10.4 6.7 10.4 12.1 0 7.3-4.8 13.5-11.5 13.5-14.5 0-13.6-25.6 1.1-25.6zm-.7 1.3c-10.8 0-8.9 23.1.4 23.1s9.9-23.1-.4-23.1zm23.3 8.1h.9v7.5h-.9c-.1-4.8-3.8-2.9-6-3.4V45c0 3.3-.1 3.1 2.7 3.5v1h-8.6v-1c2.9-.4 2.8-.2 2.8-3.5V29.2c0-3.3.1-3.1-2.8-3.5v-1h14.3v5.8h-.8c-.4-2.6-1-4.6-3.3-4.6h-4.3v10.8c2.5-.3 5.9 1.2 6-3zM108 105.4c5.3-.7 5.1-.3 5.1-6.7V67.8c0-6.4.2-6.1-5.1-6.8v-1.8h26.6v11H133c-.6-5-1.7-8.8-6-8.8h-8.1V81c4-.6 10.3 2.3 10.5-6h1.5v14.6h-1.5c-.2-9-7.1-5.6-10.5-6.4v15.5c0 5.8 2.3 6.3 7.7 6.3 8.6 0 8.2-2.8 10.9-10.2h1.6l-1.8 12.4h-29.2v-1.8z" transform="translate(-1)"></path>
<path class="fill--current fill--white" d="M143.9 98.7V67.8c0-6.4.2-6.1-5.2-6.8v-1.8h16.2V61c-5.4.8-5.2.4-5.2 6.8v32c0 4.8 2.3 5.3 7.7 5.3 8.7 0 8.4-2.8 11.1-10.2h1.5l-1.8 12.3h-29.5v-1.8c5.7-.4 5.2-1.1 5.2-6.7z" transform="translate(-1)"></path>
<path class="fill--current fill--white" d="M163 91.3l-2.8 9.2c-.7 2.6.4 4.9 3 4.9v1.8h-10.9v-1.8c4.6 0 4.7-3.8 18.8-47.1h3.3c12.8 43.3 12.9 47.1 17 47.1v1.8h-13.9v-1.8c6.7 0 2.3-6.7.7-14.2H163zm14.4-2.7l-6.3-22.3h-.2l-7 22.3zM193 67.4l7.1 29.5h.2l12.1-37.1h2.2l11.9 36.7h.2c2.7-9.7 5.3-19.5 7.9-29.2 1.2-4.3.2-6.3-4.7-6.4v-1.7h13.2v1.7c-1.7 0-4.2 1.6-5.2 5.4l-11.3 40.9h-2.8l-12.1-37.3-12 37.3h-2.5c-9.2-33.2-9-46.3-15.9-46.3v-1.7H197v1.7c-1.1.4-5.9-.7-4 6.5zm50 23.9l-2.7 9.2c-.7 2.6.4 4.9 2.9 4.9v1.8h-10.5v-1.8c1.5 0 3.2-1.2 4.2-3.4 2.4-6.1 9.3-28.6 14.1-43.7h3.2c12.8 44.4 12.7 47.1 16.7 47.1v1.8h-13.6v-1.8c6.5 0 2.3-6.5.6-14.2H243zm14.1-2.7l-6.2-22.3h-.1l-6.9 22.3z" transform="translate(-1)"></path>
<path class="fill--current fill--white" d="M265.9 59.2h17.3c15.4 0 15.4 20.3 3.7 25.6 2.1 3.5 9.9 18.4 14.2 21.5v.9H295c-3.5 0-5.4-7.5-12.6-21.3h-5.6v12.7c0 6.4-.2 6.1 5.1 6.8v1.8h-16v-1.8c5.4-.8 5.1-.4 5.1-6.8V67.8c0-6.4.3-6.1-5.1-6.8zm10.9 24.5c2.5-.8 12.5 4.1 12.5-12.3 0-12.9-10.2-9.6-12.5-10.1z" transform="translate(-1)"></path>
<path class="fill--current fill--white" d="M298.7 105.4c5.1-.7 4.9-.3 4.9-6.7V67.8c0-6.4.2-6.1-4.9-6.8v-1.8h25.9v11h-1.4c-.7-5-1.8-8.8-5.9-8.8h-7.9V81c3.8-.6 9.9 2.4 10.2-6h1.5v14.6h-1.5c-.2-9-7.1-5.6-10.2-6.4v15.5c0 5.8 2.2 6.3 7.5 6.3 8.4 0 8-2.8 10.7-10.2h1.4l-1.7 12.4h-28.6v-1.8zM20.1 53c0 17.6 3.9 31.2 19.4 31.2s21.8-11.7 21.8-31.9c-.3-38.3.6-31.3-.6-42.1-.5-4.5-4-6.2-9-6.9V0h24.6v3.3c-5.1.6-8.5 2.4-9 6.9-1.3 10.7-.2-.3-.6 42.6 0 27.2-14.3 37.3-27.8 37.3-22.2 0-29.1-13.7-29.1-36.5V15.8C10 4 10.4 4.7 1 3.3V0h28.1v3.3c-9.4 1.4-9 .7-9 12.4zm316.2 52.4h-.6v1.2h-.4v-2.9c.9 0 1.4-.2 1.8.2a1 1 0 0 1-.1 1.4h-.2l.5 1.3h-.4zm-.6-1.3v.9c.4-.1 1.1.1 1.1-.5s-.9-.4-1.1-.4z" transform="translate(-1)"></path>
<path class="fill--current fill--white" d="M336.3 102.7a2.4 2.4 0 1 1 0 4.8c-3.1 0-3.1-4.8 0-4.8m0-.4c-3.5 0-3.5 5.5 0 5.5s3.6-5.5 0-5.5zM25 41.1h39c29.1 0 43.1 17.9 43.1 46.6 0 19.8-8.7 39.3-26.9 48.1-13.5 6.5-24.4 3.3-55.2 4.2v-3.8c6.9-.9 9.7-.7 10-6.4s.1-9.2.1-71c0-13.1.5-12.5-10.1-14.1zm21.5 78.8c0 15.4 3.2 15.6 14.1 15.6 16.7 0 26.1-9.3 30.6-25.2 1.7-6 2.4-13.5 2.4-22.3 0-24.7-10-42.4-34.5-42.4H46.5z" transform="translate(-1)"></path>
</svg>

